<svg id="Layer_1" data-name="Layer 1" xmlns="http://www.w3.org/2000/svg" viewBox="0 0 509.27 64.17"><defs><style>.cls-1{fill:#57499e;}.cls-2{fill:#282828;}.cls-3{isolation:isolate;}.cls-4{fill:#432b7f;}</style></defs><title>title_noshadow</title><path class="cls-1" d="M34.42,61V59.25a19.75,19.75,0,0,1-4.19,1.33,29,29,0,0,1-4.55.5A21.62,21.62,0,0,1,20,60.45a12.62,12.62,0,0,1-8.31-5.52Q9.1,50.75,9.83,42.63a19.29,19.29,0,0,1,1.72-6.55,13.45,13.45,0,0,1,3.3-4.35A12.48,12.48,0,0,1,19.2,29.3a17.38,17.38,0,0,1,4.92-.83,22.43,22.43,0,0,1,4.49.4,19.57,19.57,0,0,1,3.29.93,12.74,12.74,0,0,1,2.59,1.33L35,17.43l13-.13.33,43.81ZM27.18,49.41a6.62,6.62,0,0,0,4.72-1.66A4.54,4.54,0,0,0,33.29,44a3.28,3.28,0,0,0-.6-1.8A4,4,0,0,0,31.37,41a5.79,5.79,0,0,0-1.8-.6,8.86,8.86,0,0,0-2-.1,9.47,9.47,0,0,0-2.8.57,4.71,4.71,0,0,0-1.66,1.06,3.75,3.75,0,0,0-.86,1.4A4.66,4.66,0,0,0,22,44.89a5,5,0,0,0,.27,1.56,3.5,3.5,0,0,0,.93,1.5A4.79,4.79,0,0,0,24.82,49,6.09,6.09,0,0,0,27.18,49.41Z" transform="translate(-9.67 -8.57)"/><path class="cls-1" d="M91.06,42a23,23,0,0,1-1.46,9.9,14.42,14.42,0,0,1-4.42,5.88,16.29,16.29,0,0,1-6.28,2.9,38.55,38.55,0,0,1-7,.93,26.39,26.39,0,0,1-6.85-.64,15.88,15.88,0,0,1-5.95-2.69,15,15,0,0,1-4.32-5.08,18.29,18.29,0,0,1-1.9-7.88,15.3,15.3,0,0,1,1.63-8,18.52,18.52,0,0,1,4.62-5.66A22.53,22.53,0,0,1,65.1,28.1a27.49,27.49,0,0,1,5.69-1.62A23.78,23.78,0,0,1,74,26.24a21.19,21.19,0,0,1,4.16.37A20.74,20.74,0,0,1,82.62,28a13.19,13.19,0,0,1,4.09,2.76,14.34,14.34,0,0,1,3,4.55A18.35,18.35,0,0,1,91.06,42ZM72,49.88a7.57,7.57,0,0,0,5.59-2,6.32,6.32,0,0,0,1.92-5.22,6.3,6.3,0,0,0-.83-2.93A5.11,5.11,0,0,0,76.9,38a6.45,6.45,0,0,0-2.36-.83A12.29,12.29,0,0,0,72,37.05q-3.66.2-5.35,2.06A5.9,5.9,0,0,0,65,43.36a8.72,8.72,0,0,0,.3,2.26,5.16,5.16,0,0,0,1.1,2.06,6.21,6.21,0,0,0,2.16,1.56A8,8,0,0,0,72,49.88Z" transform="translate(-9.67 -8.57)"/><path class="cls-1" d="M132.68,42a23,23,0,0,1-1.47,9.9,14.34,14.34,0,0,1-4.42,5.88,16.22,16.22,0,0,1-6.28,2.9,38.55,38.55,0,0,1-7,.93,26.43,26.43,0,0,1-6.85-.64,16,16,0,0,1-6-2.69,15,15,0,0,1-4.32-5.08,18.15,18.15,0,0,1-1.89-7.88,15.3,15.3,0,0,1,1.63-8,18.52,18.52,0,0,1,4.62-5.66,22.37,22.37,0,0,1,6-3.49,27.41,27.41,0,0,1,5.68-1.62,23.92,23.92,0,0,1,3.22-.24,21.13,21.13,0,0,1,4.16.37A20.57,20.57,0,0,1,124.23,28a13.07,13.07,0,0,1,4.09,2.76,14.36,14.36,0,0,1,3,4.55A18.35,18.35,0,0,1,132.68,42ZM113.6,49.88a7.56,7.56,0,0,0,5.58-2,6.33,6.33,0,0,0,1.93-5.22,6.54,6.54,0,0,0-.83-2.93A5.2,5.2,0,0,0,118.52,38a6.51,6.51,0,0,0-2.36-.83,12.32,12.32,0,0,0-2.56-.13q-3.66.2-5.35,2.06a5.86,5.86,0,0,0-1.63,4.25,8.72,8.72,0,0,0,.3,2.26A5.14,5.14,0,0,0,108,47.68a6.4,6.4,0,0,0,2.16,1.56A8,8,0,0,0,113.6,49.88Z" transform="translate(-9.67 -8.57)"/><path class="cls-1" d="M161.79,61V59.25a19.85,19.85,0,0,1-4.18,1.33,29.24,29.24,0,0,1-4.56.5,21.62,21.62,0,0,1-5.68-.63,12.62,12.62,0,0,1-8.31-5.52q-2.59-4.18-1.86-12.3a19.06,19.06,0,0,1,1.73-6.55,13.29,13.29,0,0,1,3.29-4.35,12.56,12.56,0,0,1,4.35-2.43,17.5,17.5,0,0,1,4.92-.83,22.43,22.43,0,0,1,4.49.4,19.57,19.57,0,0,1,3.29.93,12.74,12.74,0,0,1,2.59,1.33l.47-13.7,13-.13.33,43.81Zm-7.24-11.63a6.62,6.62,0,0,0,4.72-1.66A4.54,4.54,0,0,0,160.66,44a3.36,3.36,0,0,0-.59-1.8A4.12,4.12,0,0,0,158.74,41a5.7,5.7,0,0,0-1.8-.6,8.86,8.86,0,0,0-2-.1,9.47,9.47,0,0,0-2.8.57,4.8,4.8,0,0,0-1.66,1.06,3.88,3.88,0,0,0-.86,1.4,4.66,4.66,0,0,0-.27,1.56,5,5,0,0,0,.27,1.56,3.71,3.71,0,0,0,.93,1.5A4.79,4.79,0,0,0,152.19,49,6.09,6.09,0,0,0,154.55,49.41Z" transform="translate(-9.67 -8.57)"/><path class="cls-1" d="M198.09,12.58l.4,48.53L181.6,61l2.46-49.26Z" transform="translate(-9.67 -8.57)"/><path class="cls-1" d="M227.81,51.27a11.36,11.36,0,0,0,3.49-1.13,13.62,13.62,0,0,0,2.49-1.66,10.21,10.21,0,0,0,2-2.19l6.65,6a12.67,12.67,0,0,1-3.66,4.39,22.79,22.79,0,0,1-5.85,3.09,29,29,0,0,1-9.57,1.56,22.17,22.17,0,0,1-8.67-1.26,16.48,16.48,0,0,1-5.85-3.73A15.31,15.31,0,0,1,205.37,51a22.11,22.11,0,0,1-1.43-6.08,17.1,17.1,0,0,1,.47-6.18,16,16,0,0,1,7.87-10.17,19.33,19.33,0,0,1,7.62-2.26,29.56,29.56,0,0,1,7.81.2,21.83,21.83,0,0,1,5.81,1.79,15.13,15.13,0,0,1,4.06,2.79A14.49,14.49,0,0,1,240,34.25a25.11,25.11,0,0,1,1.39,3,23.84,23.84,0,0,1,.8,2.39c.18.8.31,1.51.4,2.13L217.5,45.55a7.27,7.27,0,0,0,3.33,4.79Q223.41,51.94,227.81,51.27ZM223.29,34a6.43,6.43,0,0,0-3.76,1.19,7.56,7.56,0,0,0-1.9,2.2,7.15,7.15,0,0,0-.79,3.06l13.56-1.53a6.87,6.87,0,0,0-3.59-4.29A6.4,6.4,0,0,0,223.29,34Z" transform="translate(-9.67 -8.57)"/><path class="cls-2" d="M299.25,39.83a10.07,10.07,0,1,0-20.14,0v18a.21.21,0,0,1-.07.13v.14a1.72,1.72,0,0,1-.8.86,1.79,1.79,0,0,1-.8.2h-.33A.24.24,0,0,1,277,59c-.13,0-.27-.13-.4-.2s-.13-.06-.2-.13l-.2-.2c-.07-.07-.07-.13-.13-.13s0-.07-.07-.13a.24.24,0,0,0-.06-.14.25.25,0,0,0-.07-.2V39.83a10,10,0,1,0-20.08,0V57.58a1.43,1.43,0,0,1-.73,1.26.76.76,0,0,1-.4.2c-.07.07-.13.07-.27.07H254a1.74,1.74,0,0,1-1.33-1.2V28.13a1.54,1.54,0,0,1,1.53-1.53,1.51,1.51,0,0,1,1.59,1.53v3.12a13,13,0,0,1,10-4.65,13.21,13.21,0,0,1,11.63,6.91,13.49,13.49,0,0,1,11.71-6.91,13.23,13.23,0,0,1,13.23,13.23V57.58a1.57,1.57,0,0,1-1.6,1.53,1.55,1.55,0,0,1-1.53-1.53Z" transform="translate(-9.67 -8.57)"/><path class="cls-2" d="M313.54,42.89a16.07,16.07,0,0,1,15.82-16.36c8.38,0,15,6.65,15.69,15.16V42a1.51,1.51,0,0,1-1.59,1.46H316.73a12.82,12.82,0,0,0,12.63,12.5A12.26,12.26,0,0,0,339.87,50a1.54,1.54,0,0,1,2.12-.53,1.69,1.69,0,0,1,.54,2.26,15.55,15.55,0,0,1-13.17,7.38A16,16,0,0,1,313.54,42.89Zm3.39-2.59H341.6a12.59,12.59,0,0,0-12.24-10.58A12.73,12.73,0,0,0,316.93,40.3Z" transform="translate(-9.67 -8.57)"/><path class="cls-2" d="M354,42.89a16.07,16.07,0,0,1,15.83-16.36c8.37,0,15,6.65,15.69,15.16V42a1.51,1.51,0,0,1-1.6,1.46H357.22a12.81,12.81,0,0,0,12.63,12.5A12.23,12.23,0,0,0,380.35,50a1.55,1.55,0,0,1,2.13-.53,1.69,1.69,0,0,1,.53,2.26,15.52,15.52,0,0,1-13.16,7.38A16,16,0,0,1,354,42.89Zm3.4-2.59h24.66a12.58,12.58,0,0,0-12.23-10.58A12.71,12.71,0,0,0,357.42,40.3Z" transform="translate(-9.67 -8.57)"/><path class="cls-2" d="M396.84,43.35V28.13a1.63,1.63,0,0,1,3.25,0v4.72a15.44,15.44,0,0,1,12.37-6.32,15.92,15.92,0,0,1,15.76,16.16,16,16,0,0,1-15.76,16.22,15.33,15.33,0,0,1-12.37-6.38V71.14a1.63,1.63,0,0,1-3.25,0Zm3.25-.66c0,7.18,5.66,13,12.37,13a12.82,12.82,0,0,0,12.5-13,12.44,12.44,0,1,0-24.87-.53Z" transform="translate(-9.67 -8.57)"/><path class="cls-2" d="M439.85,14.17a1.62,1.62,0,0,1,1.59-1.6,1.64,1.64,0,0,1,1.67,1.6V57.51a1.64,1.64,0,0,1-1.67,1.6,1.62,1.62,0,0,1-1.59-1.6Z" transform="translate(-9.67 -8.57)"/><path class="cls-2" d="M456.6,42.89a16.07,16.07,0,0,1,15.82-16.36c8.38,0,15,6.65,15.69,15.16V42a1.51,1.51,0,0,1-1.59,1.46H459.79a12.82,12.82,0,0,0,12.63,12.5A12.26,12.26,0,0,0,482.93,50a1.55,1.55,0,0,1,2.13-.53,1.7,1.7,0,0,1,.53,2.26,15.55,15.55,0,0,1-13.17,7.38A16,16,0,0,1,456.6,42.89ZM460,40.3h24.67a12.59,12.59,0,0,0-12.24-10.58A12.73,12.73,0,0,0,460,40.3Z" transform="translate(-9.67 -8.57)"/><g class="cls-3"><path class="cls-4" d="M517.18,22.09,515,23.27a2.78,2.78,0,0,1-.87.28q-1,.18-2,.3a3,3,0,0,0-1,.26l2.18-1.17a2.59,2.59,0,0,1,1-.26q1-.13,2-.3a3.07,3.07,0,0,0,.87-.29" transform="translate(-9.67 -8.57)"/></g><g class="cls-3"><path class="cls-4" d="M518.21,36,516,37.21l-7,.61,2.18-1.18,7-.61" transform="translate(-9.67 -8.57)"/></g><g class="cls-3"><path class="cls-4" d="M499.4,15.58l-2.18,1.17a2,2,0,0,0,1.08-2.34,4.06,4.06,0,0,1,1.93-4.13l2.18-1.17a4,4,0,0,0-1.93,4.12,2,2,0,0,1-1.08,2.35" transform="translate(-9.67 -8.57)"/></g><g class="cls-3"><path class="cls-4" d="M511.21,36.64,509,37.82a11.37,11.37,0,0,1-1.4-1.28c-.85-1.07-1.59-2.24-2.43-3.31-.35-.44-.6-.65-.84-.63a.24.24,0,0,0-.14,0l2.18-1.18a.39.39,0,0,1,.14,0c.24,0,.49.19.84.63.84,1.08,1.58,2.24,2.43,3.31a10.63,10.63,0,0,0,1.4,1.28" transform="translate(-9.67 -8.57)"/></g><path class="cls-4" d="M492.31,21.54l-2.18,1.18a4.64,4.64,0,0,1,2.23-3.27c.93-.6,1.88-1.2,2.85-1.73l2.18-1.18c-1,.53-1.92,1.13-2.85,1.73a4.69,4.69,0,0,0-2.23,3.27" transform="translate(-9.67 -8.57)"/><g class="cls-3"><path class="cls-4" d="M492.4,22.34l-2.18,1.18-.09-.8,2.18-1.18.09.8" transform="translate(-9.67 -8.57)"/></g><g class="cls-3"><path class="cls-4" d="M503.12,37.36a5.2,5.2,0,0,1-2.18,1.17c-.88,0-4.66.41-7,.62L496.13,38l7-.61" transform="translate(-9.67 -8.57)"/></g><path class="cls-4" d="M496.13,38l-2.19,1.18c-.9-.34-1-.47-.93-1.58a3.53,3.53,0,0,1,.05-.66c.45-1.67.87-3.35,1.4-5s1.25-3.43,1.82-5.17c.29-.92-.06-1.36-1-1.38a14.14,14.14,0,0,0-1.84.05c-1.45.12-2.66-.21-3.25-1.9l2.18-1.18c.59,1.69,1.8,2,3.25,1.9a16.15,16.15,0,0,1,1.84,0c.91,0,1.26.47,1,1.38-.57,1.74-1.26,3.43-1.82,5.18a37.58,37.58,0,0,0-1,5.6c-.05,1.11-.46,1.28.45,1.62" transform="translate(-9.67 -8.57)"/><path class="cls-1" d="M504.49,8.57a1.2,1.2,0,0,0,.29.09,3.64,3.64,0,0,1,3.3,2.59,9.46,9.46,0,0,1,.61,2.26c.09.7.43.84,1,1,1.91.59,3.82,1.18,5.69,1.9a5,5,0,0,1,3,2.84l.09.8a2.41,2.41,0,0,1-2.1,2.33q-1,.16-2,.3c-1.49.19-1.72.65-.88,2.07s1.85,2.92,2.77,4.39a19.15,19.15,0,0,1,2.6,5.24c.26,1,.21,1.16-.58,1.65-2.33.2-6.52.58-7,.61s-1-.78-1.4-1.28c-.85-1.07-1.59-2.23-2.43-3.31-.35-.44-.6-.65-.84-.63s-.43.28-.67.77c-.59,1.18-1,2.43-1.63,3.61-.29.57-.45,1.45-1.12,1.56s-4.66.41-7,.61c-.91-.34-1.51-.57-1.46-1.68,0-.22,1.44-3.91,2-5.54s1.25-3.44,1.82-5.18c.29-.91-.06-1.36-1-1.38a16.15,16.15,0,0,0-1.84,0c-1.45.12-2.66-.21-3.25-1.9l-.09-.8a4.69,4.69,0,0,1,2.23-3.27,30.07,30.07,0,0,1,4.45-2.5,2.1,2.1,0,0,0,1.49-2.54A4,4,0,0,1,502.72,9l.79-.31Z" transform="translate(-9.67 -8.57)"/></svg>